HIERARCHY
ROOT hip
{
  OFFSET 0.0 0.0 0.0
  CHANNELS 6 Xposition Yposition Zposition Zrotation Yrotation Xrotation
  JOINT torso
  {
    OFFSET 0.0 0.0 0.0
    CHANNELS 3 Zrotation Xrotation Yrotation
    JOINT neck
    {
      OFFSET -8.059630999999968 325.56260699999996 64.6221310000002
      CHANNELS 3 Zrotation Xrotation Yrotation
      JOINT head
      {
        OFFSET 34.685424000000125 375.1179809999999 232.79357900000002
        CHANNELS 3 Zrotation Xrotation Yrotation
        End Site
        {
          OFFSET 0.0 0.0 0.0
        }
      }
    }
    JOINT left_collar
    {
      OFFSET -8.059630999999968 325.56260699999996 64.6221310000002
      CHANNELS 3 Zrotation Xrotation Yrotation
      JOINT left_upper_arm
      {
        OFFSET -124.124665 -15.370300999999927 25.582641999999964
        CHANNELS 3 Zrotation Xrotation Yrotation
        JOINT left_forearm
        {
          OFFSET -268.19913399999996 105.06054699999993 114.74548300000004
          CHANNELS 3 Zrotation Xrotation Yrotation
          JOINT left_hand
          {
            OFFSET -235.82003099999991 -10.198180999999977 -38.67455999999993
            CHANNELS 3 Zrotation Xrotation Yrotation
            End Site
            {
              OFFSET 0.0 0.0 0.0
            }
          }
        }
      }
    }
    JOINT right_collar
    {
      OFFSET -8.059630999999968 325.56260699999996 64.6221310000002
      CHANNELS 3 Zrotation Xrotation Yrotation
      JOINT right_upper_arm
      {
        OFFSET 162.73931899999997 -2.8598030000000563 26.244994999999903
        CHANNELS 3 Zrotation Xrotation Yrotation
        JOINT right_forearm
        {
          OFFSET 284.6506340000001 103.07031299999994 145.84521499999994
          CHANNELS 3 Zrotation Xrotation Yrotation
          JOINT right_hand
          {
            OFFSET 226.332337 -12.198241999999937 -49.27258299999994
            CHANNELS 3 Zrotation Xrotation Yrotation
            End Site
            {
              OFFSET 0.0 0.0 0.0
            }
          }
        }
      }
    }
  }
}
MOTION
Frames: 16
Frame Time: 0.01
410.9726194274367 252.03610518110816 96.24334239712688 -3.8854041408048463 -2.9132854561618027 12.764460204077109 1.2589164815464582 -4.371777724656941 -0.40328405759898533 0.18013522988011885 -3.9294204265940786 0.2403564556751934 0.0 0.0 0.0 1.8998992007321531 0.8032967588396037 -2.889980641707567 61.000347442801 19.337121740151495 17.809296111990523 35.87515184885124 -3.878126585455242 -6.0567038667143045 0.0 0.0 0.0 -2.432845472247562 0.2467160033474718 -3.7219471559631336 -51.24833463189495 21.385646977139274 -12.851731464521743 -53.92778864001331 -8.351524135291175 7.85975258651201 0.0 0.0 0.0
410.753260995718 252.91358725077012 94.63001776493454 -3.8519787450278 -2.869192831672873 12.65355707337834 1.2795015740954558 -4.360792155637184 -0.40773818207521384 0.14746779191935064 -4.057630315250226 0.2725811470266314 0.0 0.0 0.0 1.9162616343684657 0.8009341592372483 -2.8467249312622163 60.97366671690179 19.30294904784614 17.947782755561718 35.81112640378919 -3.9535759487761375 -5.83392577503719 0.0 0.0 0.0 -2.429632729178497 0.24732115422392806 -3.6958506724490587 -51.324814418098384 21.424096941033454 -12.769777259909448 -53.68633280949512 -8.551928257348697 7.43570542774883 0.0 0.0 0.0
410.53205148381113 253.72461361246306 93.09059431594173 -3.8190259274755314 -2.8378233444830854 12.54722533041751 1.3003889441815148 -4.351599612570248 -0.4123226993329805 0.11603023413313532 -4.180479933245726 0.30357429138493086 0.0 0.0 0.0 1.9318558620783666 0.7977147589896004 -2.7988215497891376 60.9460740816089 19.268808089094694 18.085580562530684 35.75346836400339 -4.022232371331236 -5.630833554282707 0.0 0.0 0.0 -2.4258475704586497 0.2480587226265173 -3.6644259336673755 -51.40111327982427 21.46094065542781 -12.697540716427806 -53.4501613198105 -8.740084765362678 7.031024341327872 0.0 0.0 0.0
410.30851262042177 254.46965967908798 91.62785689696231 -3.7864317154912066 -2.819676207566338 12.446903170115368 1.3211464551121912 -4.344125934774497 -0.416934373282196 0.0862111871842907 -4.297479221538145 0.3330393493614102 0.0 0.0 0.0 1.9464583014222478 0.7936688146248111 -2.7468489175778545 60.91869606776112 19.235391682875324 18.220450494677827 35.70058382711806 -4.083672074670904 -5.4481756206975565 0.0 0.0 0.0 -2.4216028289416216 0.24891514729232142 -3.6283707412542423 -51.47800340329691 21.49623006789491 -12.636033255224518 -53.218835270874024 -8.916778468271946 6.644559556399048 0.0 0.0 0.0
410.0818259685617 255.14948198624646 90.24308253573504 -3.75404166233107 -2.8150020161859937 12.353980126583311 1.341282218661016 -4.338278000281028 -0.4214553163515991 0.05836172304630229 -4.40833894531637 0.3607207455445146 0.0 0.0 0.0 1.959871463925051 0.7888572765057182 -2.6915507772838687 60.89248657686681 19.203280244333627 18.350490804535657 35.65120188846947 -4.137637260672706 -5.286327728488814 0.0 0.0 0.0 -2.4170243277915326 0.2498721839719211 -3.588549623528272 -51.55612456752836 21.53000662140491 -12.58607390324836 -52.99186519805792 -9.082788791387436 6.275109310993932 0.0 0.0 0.0
409.8509491912527 255.76510366439786 88.93612240348253 -3.721656920511074 -2.823819753496344 12.269790697111233 1.3602504851704762 -4.333944290694704 -0.4257543293916717 0.0327912202679721 -4.512951467955864 0.38640513948928185 0.0 0.0 0.0 1.971924130762844 0.7833704927661047 -2.6338268581816306 60.868216708122574 19.172940557674337 18.474142903126552 35.604363204568536 -4.184033896222525 -5.145307235512722 0.0 0.0 0.0 -2.412249974844832 0.25090731694134105 -3.545983364800799 -51.63597953763676 21.562298657504424 -12.548294063132735 -52.7687352196076 -9.238869745228367 5.921464059515293 0.0 0.0 0.0
409.6147334330924 256.31778822255944 87.70553011632212 -3.689033142546206 -2.845941141406361 12.195606705230958 1.3774607007767319 -4.330995689435302 -0.4296889920071299 0.009763996020067348 -4.611364602637893 0.40992157446670285 0.0 0.0 0.0 1.9824694331973058 0.7773254524711389 -2.57471724281921 60.84647105254334 19.144728417188038 18.590185555156452 35.55940059858189 -4.222923250464137 -5.024798945525025 0.0 0.0 0.0 -2.4074293048981814 0.25199446992173175 -3.5018319801478706 -51.71793208423302 21.593120286321383 -12.523139368030007 -52.54892792539642 -9.38573287612331 5.582447616715076 0.0 0.0 0.0
409.3720362791784 256.80900455090466 86.54872758475423 -3.655882731411842 -2.88100075741898 12.132627961515736 1.39228982724046 -4.32928642784553 -0.4331085287269244 -0.010503380626930993 -4.703750312949705 0.43114070058874454 0.0 0.0 0.0 1.991381320368227 0.7708616915286263 -2.515380449088224 60.82765028662449 19.118894487598748 18.697719152610937 35.51591310982812 -4.254508015296767 -4.924190499673279 0.0 0.0 0.0 -2.4027231983830983 0.2531049688394798 -3.457371160461333 -51.80220742656326 21.62247161815349 -12.510869305394124 -52.331949583529706 -9.524033885658463 5.256953586017976 0.0 0.0 0.0
409.1218250112981 257.2403862935254 85.46219841898946 -3.621880795174785 -2.928490151964414 12.081971075067194 1.4040978264210966 -4.328655126193339 -0.43585743270574556 -0.02784410904822488 -4.790370183110787 0.44997324306223097 0.0 0.0 0.0 1.9985500236833593 0.7641360645884238 -2.4570655676664255 60.811979535428925 19.095592711753124 18.796141897174234 35.47373487817015 -4.279114065021017 -4.842615028357823 0.0 0.0 0.0 -2.398303436617721 0.25420868472727437 -3.413962597749667 -51.88889494678619 21.650340161572874 -12.511555742380004 -52.117355145003316 -9.65436340370928 4.943975725782944 0.0 0.0 0.0
408.86326544581954 257.6136887591832 84.44169824657175 -3.58667494246949 -2.9877940799140794 12.044656495160794 1.412245992971287 -4.328925937728213 -0.43777977955977826 -0.04214247275306904 -4.871539647668238 0.46636786418291387 0.0 0.0 0.0 2.0038772015224993 0.7573166437700823 -2.4010790706685956 60.79952168490624 19.074890603484853 18.88511974090473 35.43290026413738 -4.297169054122788 -4.778998661980387 0.0 0.0 0.0 -2.3943517203173688 0.2552752687942513 -3.3730189180699135 -51.9779530681971 21.676703126653685 -12.525081777767152 -51.904772403742435 -9.777242184686706 4.642631228352596 0.0 0.0 0.0
408.5957925035162 257.9307463633465 83.48247121750573 -3.5498988058350034 -3.058226902639646 12.021594000580073 1.4161175989960297 -4.329909895523332 -0.43872411495983543 -0.053334388264342406 -4.947592956201786 0.480308555968491 0.0 0.0 0.0 2.007271465678619 0.7505760371517075 -2.3487471123708517 60.79019462873532 19.056780798146917 18.964551907993258 35.393606624261324 -4.309179107623581 -4.732110531021748 0.0 0.0 0.0 -2.39105778595014 0.25627538570260955 -3.3359641739611985 -52.069216198415816 21.701530323809898 -12.55114245764136 -51.693924568624674 -9.893120768437129 4.352176238566438 0.0 0.0 0.0
408.31915977648475 258.19343326601825 82.57946244818369 -3.5111889148366635 -3.1390672360337804 12.013566943751586 1.4151401134933588 -4.331406666089672 -0.4385487547135055 -0.061407124486621514 -5.018850743499236 0.4918116941484101 0.0 0.0 0.0 2.0086449456282964 0.7440844309015441 -2.301374309731542 60.78379133741062 19.04119328476563 19.034533753761384 35.35617616310036 -4.315704830365256 -4.700613040704207 0.0 0.0 0.0 -2.3886163091208363 0.2571818554951863 -3.304191010319042 -52.16240361377282 21.72478731993728 -12.589248836508586 -51.4846504484682 -10.00238340126511 4.0720133385960064 0.0 0.0 0.0
408.0334666356894 258.4036294166832 81.72751714187899 -3.4702042791979766 -3.22958905057379 12.021215652381475 1.4088080951751332 -4.333206985739481 -0.4371272976668035 -0.06639814145970914 -5.0855918767188655 0.500922875816059 0.0 0.0 0.0 2.0079114369601547 0.7380026561021653 -2.2602001624569676 60.78000162447389 19.028007804209214 19.09531861625082 35.32101824672504 -4.317337760777487 -4.683110456579913 0.0 0.0 0.0 -2.387222382488357 0.25797062777305896 -3.279015761347876 -52.25713013201172 21.74643850936803 -12.638736677965294 -51.27692144338594 -10.105355755814431 3.801691166962516 0.0 0.0 0.0
407.7391627738803 258.56319366547666 80.92155854005082 -3.426647805303601 -3.329087707981828 12.04502052064423 1.3967057458270162 -4.3350960448963995 -0.4343541217130254 -0.06839301705308558 -5.148030965466248 0.507713650349171 0.0 0.0 0.0 2.004986513254738 0.7324755703133213 -2.226354467834419 60.77843453839533 19.017065960887027 19.14728018752055 35.28859347884693 -4.314678236546297 -4.67819415915079 0.0 0.0 0.0 -2.387065490993796 0.25862153180838765 -3.261632886073263 -52.35291840202176 21.76644978015248 -12.698780796500767 -51.07085458213847 -10.202315742229045 3.5408967914247746 0.0 0.0 0.0
407.43703142191237 258.6739449783491 80.15673859878493 -3.3802884728629383 -3.43689984457321 12.085285482692104 1.378528060402967 -4.336857974505606 -0.4301496128561309 -0.06752246025011599 -5.206302564553484 0.512278239414214 0.0 0.0 0.0 1.9997897699869702 0.7276260274574309 -2.200813296271063 60.778640407185186 19.00818265787775 19.190876777343007 35.259380714686515 -4.308315444040232 -4.68448328991601 0.0 0.0 0.0 -2.3883220732659987 0.25911877180465315 -3.2530703081303805 -52.44921261949642 21.78479050336223 -12.768415652977822 -50.86672096070542 -10.293506493178835 3.289441884132104 0.0 0.0 0.0
407.1281537313515 258.73765214382325 79.42855722624024 -3.330983047603481 -3.5524165315722045 12.14212273555275 1.3540995144853385 -4.3382814091220965 -0.42446486714687925 -0.06395845075387485 -5.260452691412599 0.5147303295339645 0.0 0.0 0.0 1.992249133178855 0.7235496887117192 -2.184357297686243 60.780131688025826 19.001156525799736 19.226618662840583 35.23384802682449 -4.2988102113871465 -4.700659888581487 0.0 0.0 0.0 -2.391146944577997 0.2594511652966468 -3.2541473792001985 -52.545393438854674 21.801434638951083 -12.846562342550566 -50.664949130373536 -10.379150455925657 3.047244119651852 0.0 0.0 0.0
